<mxfile host="app.diagrams.net" modified="2022-03-18T04:49:01.558Z" agent="5.0 (Windows NT 10.0; Win64; x64) AppleWebKit/537.36 (KHTML, like Gecko) Chrome/99.0.4844.74 Safari/537.36" etag="zEtacXmiQfCpB_Ws8Eh1" version="17.1.3" type="github">
  <diagram id="znugRSOsPm6SUrrJNAaR" name="第1頁">
    <mxGraphModel dx="1038" dy="578" grid="1" gridSize="10" guides="1" tooltips="1" connect="1" arrows="1" fold="1" page="1" pageScale="1" pageWidth="827" pageHeight="1169" math="0" shadow="0">
      <root>
        <mxCell id="0" />
        <mxCell id="1" parent="0" />
        <mxCell id="2RkAexV70TOFhIcBIplB-5" style="edgeStyle=orthogonalEdgeStyle;rounded=0;orthogonalLoop=1;jettySize=auto;html=1;exitX=0.5;exitY=1;exitDx=0;exitDy=0;exitPerimeter=0;entryX=0.5;entryY=0;entryDx=0;entryDy=0;fontSize=24;strokeWidth=2;" parent="1" source="qSCA1g0AOKRLqDWpdV8r-6" target="2RkAexV70TOFhIcBIplB-2" edge="1">
          <mxGeometry relative="1" as="geometry" />
        </mxCell>
        <mxCell id="qSCA1g0AOKRLqDWpdV8r-6" value="&lt;span style=&quot;font-family: , &amp;#34;blinkmacsystemfont&amp;#34; , &amp;#34;segoe ui variable&amp;#34; , &amp;#34;segoe ui&amp;#34; , , , &amp;#34;helvetica&amp;#34; , &amp;#34;arial&amp;#34; , sans-serif , &amp;#34;apple color emoji&amp;#34; , &amp;#34;segoe ui emoji&amp;#34; ; font-weight: 700&quot;&gt;開始&lt;/span&gt;" style="strokeWidth=2;html=1;shape=mxgraph.flowchart.terminator;whiteSpace=wrap;fontSize=36;" parent="1" vertex="1">
          <mxGeometry x="136" y="20" width="130" height="60" as="geometry" />
        </mxCell>
        <mxCell id="2RkAexV70TOFhIcBIplB-7" style="edgeStyle=orthogonalEdgeStyle;rounded=0;orthogonalLoop=1;jettySize=auto;html=1;exitX=0.5;exitY=1;exitDx=0;exitDy=0;entryX=0.5;entryY=0;entryDx=0;entryDy=0;fontSize=24;strokeWidth=2;" parent="1" source="2RkAexV70TOFhIcBIplB-2" target="2RkAexV70TOFhIcBIplB-3" edge="1">
          <mxGeometry relative="1" as="geometry" />
        </mxCell>
        <mxCell id="2RkAexV70TOFhIcBIplB-2" value="&lt;span style=&quot;font-weight: 700&quot;&gt;&lt;font style=&quot;font-size: 24px&quot;&gt;輸入數字N&lt;/font&gt;&lt;/span&gt;" style="shape=parallelogram;perimeter=parallelogramPerimeter;whiteSpace=wrap;html=1;fixedSize=1;strokeWidth=2;" parent="1" vertex="1">
          <mxGeometry x="123.5" y="119" width="155" height="60" as="geometry" />
        </mxCell>
        <mxCell id="2RkAexV70TOFhIcBIplB-15" style="edgeStyle=orthogonalEdgeStyle;rounded=0;orthogonalLoop=1;jettySize=auto;html=1;exitX=0.5;exitY=1;exitDx=0;exitDy=0;entryX=0.5;entryY=0;entryDx=0;entryDy=0;fontSize=24;strokeWidth=2;" parent="1" source="2RkAexV70TOFhIcBIplB-3" target="2RkAexV70TOFhIcBIplB-14" edge="1">
          <mxGeometry relative="1" as="geometry" />
        </mxCell>
        <mxCell id="2RkAexV70TOFhIcBIplB-3" value="i = 2&lt;br&gt;isPrime = 1" style="rounded=0;whiteSpace=wrap;html=1;fontSize=24;strokeWidth=2;" parent="1" vertex="1">
          <mxGeometry x="124.75" y="230" width="152.5" height="60" as="geometry" />
        </mxCell>
        <mxCell id="2RkAexV70TOFhIcBIplB-17" style="edgeStyle=orthogonalEdgeStyle;rounded=0;orthogonalLoop=1;jettySize=auto;html=1;exitX=0.5;exitY=1;exitDx=0;exitDy=0;entryX=0.5;entryY=0;entryDx=0;entryDy=0;fontSize=24;strokeWidth=2;" parent="1" source="2RkAexV70TOFhIcBIplB-14" target="2RkAexV70TOFhIcBIplB-16" edge="1">
          <mxGeometry relative="1" as="geometry" />
        </mxCell>
        <mxCell id="2RkAexV70TOFhIcBIplB-29" style="edgeStyle=orthogonalEdgeStyle;rounded=0;orthogonalLoop=1;jettySize=auto;html=1;exitX=1;exitY=0.5;exitDx=0;exitDy=0;entryX=0.5;entryY=0;entryDx=0;entryDy=0;fontSize=24;strokeWidth=2;" parent="1" source="2RkAexV70TOFhIcBIplB-14" target="2RkAexV70TOFhIcBIplB-23" edge="1">
          <mxGeometry relative="1" as="geometry" />
        </mxCell>
        <mxCell id="2RkAexV70TOFhIcBIplB-14" value="i * i &amp;gt; N ?" style="rhombus;whiteSpace=wrap;html=1;fontSize=24;strokeWidth=2;" parent="1" vertex="1">
          <mxGeometry x="124.75" y="322" width="151.25" height="98" as="geometry" />
        </mxCell>
        <mxCell id="2RkAexV70TOFhIcBIplB-20" style="edgeStyle=orthogonalEdgeStyle;rounded=0;orthogonalLoop=1;jettySize=auto;html=1;exitX=0.5;exitY=1;exitDx=0;exitDy=0;entryX=0.5;entryY=0;entryDx=0;entryDy=0;fontSize=24;strokeWidth=2;" parent="1" source="2RkAexV70TOFhIcBIplB-16" target="2RkAexV70TOFhIcBIplB-19" edge="1">
          <mxGeometry relative="1" as="geometry" />
        </mxCell>
        <mxCell id="2RkAexV70TOFhIcBIplB-25" style="edgeStyle=orthogonalEdgeStyle;rounded=0;orthogonalLoop=1;jettySize=auto;html=1;exitX=1;exitY=0.5;exitDx=0;exitDy=0;entryX=0;entryY=0.5;entryDx=0;entryDy=0;fontSize=24;strokeWidth=2;" parent="1" source="2RkAexV70TOFhIcBIplB-16" target="2RkAexV70TOFhIcBIplB-24" edge="1">
          <mxGeometry relative="1" as="geometry" />
        </mxCell>
        <mxCell id="2RkAexV70TOFhIcBIplB-16" value="N ÷ i 的餘數==0 ?" style="rhombus;whiteSpace=wrap;html=1;fontSize=24;strokeWidth=2;" parent="1" vertex="1">
          <mxGeometry x="86" y="469" width="230" height="130" as="geometry" />
        </mxCell>
        <mxCell id="2RkAexV70TOFhIcBIplB-18" value="False" style="text;html=1;resizable=0;autosize=1;align=center;verticalAlign=middle;points=[];fillColor=none;strokeColor=none;rounded=0;fontSize=24;strokeWidth=2;" parent="1" vertex="1">
          <mxGeometry x="198" y="432" width="70" height="30" as="geometry" />
        </mxCell>
        <mxCell id="2RkAexV70TOFhIcBIplB-21" style="edgeStyle=orthogonalEdgeStyle;rounded=0;orthogonalLoop=1;jettySize=auto;html=1;exitX=0;exitY=0.5;exitDx=0;exitDy=0;entryX=0;entryY=0.5;entryDx=0;entryDy=0;fontSize=24;strokeWidth=2;" parent="1" source="2RkAexV70TOFhIcBIplB-19" target="2RkAexV70TOFhIcBIplB-14" edge="1">
          <mxGeometry relative="1" as="geometry">
            <Array as="points">
              <mxPoint x="46" y="680" />
              <mxPoint x="46" y="371" />
            </Array>
          </mxGeometry>
        </mxCell>
        <mxCell id="2RkAexV70TOFhIcBIplB-19" value="i = i + 1" style="rounded=0;whiteSpace=wrap;html=1;fontSize=24;strokeWidth=2;" parent="1" vertex="1">
          <mxGeometry x="141" y="650" width="120" height="60" as="geometry" />
        </mxCell>
        <mxCell id="2RkAexV70TOFhIcBIplB-22" value="False" style="text;html=1;resizable=0;autosize=1;align=center;verticalAlign=middle;points=[];fillColor=none;strokeColor=none;rounded=0;fontSize=24;strokeWidth=2;" parent="1" vertex="1">
          <mxGeometry x="198" y="610" width="70" height="30" as="geometry" />
        </mxCell>
        <mxCell id="2RkAexV70TOFhIcBIplB-34" style="edgeStyle=orthogonalEdgeStyle;rounded=0;orthogonalLoop=1;jettySize=auto;html=1;exitX=0.5;exitY=1;exitDx=0;exitDy=0;entryX=0.548;entryY=-0.057;entryDx=0;entryDy=0;entryPerimeter=0;fontSize=24;strokeWidth=2;" parent="1" source="2RkAexV70TOFhIcBIplB-23" target="2RkAexV70TOFhIcBIplB-27" edge="1">
          <mxGeometry relative="1" as="geometry" />
        </mxCell>
        <mxCell id="2RkAexV70TOFhIcBIplB-35" style="edgeStyle=orthogonalEdgeStyle;rounded=0;orthogonalLoop=1;jettySize=auto;html=1;exitX=0.5;exitY=1;exitDx=0;exitDy=0;entryX=0.5;entryY=0;entryDx=0;entryDy=0;fontSize=24;strokeWidth=2;" parent="1" source="2RkAexV70TOFhIcBIplB-23" target="2RkAexV70TOFhIcBIplB-28" edge="1">
          <mxGeometry relative="1" as="geometry" />
        </mxCell>
        <mxCell id="2RkAexV70TOFhIcBIplB-23" value="isPrime == 1 ?&amp;nbsp;" style="rhombus;whiteSpace=wrap;html=1;fontSize=24;strokeWidth=2;" parent="1" vertex="1">
          <mxGeometry x="460" y="630" width="210" height="100" as="geometry" />
        </mxCell>
        <mxCell id="2RkAexV70TOFhIcBIplB-33" style="edgeStyle=orthogonalEdgeStyle;rounded=0;orthogonalLoop=1;jettySize=auto;html=1;exitX=1;exitY=0.5;exitDx=0;exitDy=0;entryX=0.5;entryY=0;entryDx=0;entryDy=0;fontSize=24;strokeWidth=2;" parent="1" source="2RkAexV70TOFhIcBIplB-24" target="2RkAexV70TOFhIcBIplB-23" edge="1">
          <mxGeometry relative="1" as="geometry" />
        </mxCell>
        <mxCell id="2RkAexV70TOFhIcBIplB-24" value="isPrime = 0" style="rounded=0;whiteSpace=wrap;html=1;fontSize=24;strokeWidth=2;" parent="1" vertex="1">
          <mxGeometry x="380" y="504" width="140" height="60" as="geometry" />
        </mxCell>
        <mxCell id="2RkAexV70TOFhIcBIplB-39" style="edgeStyle=orthogonalEdgeStyle;rounded=0;orthogonalLoop=1;jettySize=auto;html=1;exitX=0.5;exitY=1;exitDx=0;exitDy=0;entryX=0.5;entryY=0;entryDx=0;entryDy=0;entryPerimeter=0;fontSize=24;strokeWidth=2;" parent="1" source="2RkAexV70TOFhIcBIplB-27" target="2RkAexV70TOFhIcBIplB-38" edge="1">
          <mxGeometry relative="1" as="geometry" />
        </mxCell>
        <mxCell id="2RkAexV70TOFhIcBIplB-27" value="顯示「是質數」" style="shape=parallelogram;perimeter=parallelogramPerimeter;whiteSpace=wrap;html=1;fixedSize=1;fontSize=24;strokeWidth=2;" parent="1" vertex="1">
          <mxGeometry x="330" y="800" width="200" height="60" as="geometry" />
        </mxCell>
        <mxCell id="2RkAexV70TOFhIcBIplB-40" style="edgeStyle=orthogonalEdgeStyle;rounded=0;orthogonalLoop=1;jettySize=auto;html=1;exitX=0.5;exitY=1;exitDx=0;exitDy=0;entryX=0.5;entryY=0;entryDx=0;entryDy=0;entryPerimeter=0;fontSize=24;strokeWidth=2;" parent="1" source="2RkAexV70TOFhIcBIplB-28" target="2RkAexV70TOFhIcBIplB-38" edge="1">
          <mxGeometry relative="1" as="geometry" />
        </mxCell>
        <mxCell id="2RkAexV70TOFhIcBIplB-28" value="顯示「不是質數」" style="shape=parallelogram;perimeter=parallelogramPerimeter;whiteSpace=wrap;html=1;fixedSize=1;fontSize=24;strokeWidth=2;" parent="1" vertex="1">
          <mxGeometry x="570" y="800" width="230" height="60" as="geometry" />
        </mxCell>
        <mxCell id="2RkAexV70TOFhIcBIplB-30" value="True" style="text;html=1;resizable=0;autosize=1;align=center;verticalAlign=middle;points=[];fillColor=none;strokeColor=none;rounded=0;fontSize=24;strokeWidth=2;" parent="1" vertex="1">
          <mxGeometry x="283.5" y="340" width="60" height="30" as="geometry" />
        </mxCell>
        <mxCell id="2RkAexV70TOFhIcBIplB-31" value="True" style="text;html=1;resizable=0;autosize=1;align=center;verticalAlign=middle;points=[];fillColor=none;strokeColor=none;rounded=0;fontSize=24;strokeWidth=2;" parent="1" vertex="1">
          <mxGeometry x="316" y="500" width="60" height="30" as="geometry" />
        </mxCell>
        <mxCell id="2RkAexV70TOFhIcBIplB-36" value="True" style="text;html=1;resizable=0;autosize=1;align=center;verticalAlign=middle;points=[];fillColor=none;strokeColor=none;rounded=0;fontSize=24;strokeWidth=2;" parent="1" vertex="1">
          <mxGeometry x="460" y="730" width="60" height="30" as="geometry" />
        </mxCell>
        <mxCell id="2RkAexV70TOFhIcBIplB-37" value="False" style="text;html=1;resizable=0;autosize=1;align=center;verticalAlign=middle;points=[];fillColor=none;strokeColor=none;rounded=0;fontSize=24;strokeWidth=2;" parent="1" vertex="1">
          <mxGeometry x="600" y="730" width="70" height="30" as="geometry" />
        </mxCell>
        <mxCell id="2RkAexV70TOFhIcBIplB-38" value="&lt;span style=&quot;font-family: , &amp;#34;blinkmacsystemfont&amp;#34; , &amp;#34;segoe ui variable&amp;#34; , &amp;#34;segoe ui&amp;#34; , , , &amp;#34;helvetica&amp;#34; , &amp;#34;arial&amp;#34; , sans-serif , &amp;#34;apple color emoji&amp;#34; , &amp;#34;segoe ui emoji&amp;#34; ; font-weight: 700&quot;&gt;結束&lt;/span&gt;" style="strokeWidth=2;html=1;shape=mxgraph.flowchart.terminator;whiteSpace=wrap;fontSize=36;" parent="1" vertex="1">
          <mxGeometry x="500" y="960" width="130" height="60" as="geometry" />
        </mxCell>
      </root>
    </mxGraphModel>
  </diagram>
</mxfile>
